<svg xmlns="http://www.w3.org/2000/svg" viewBox="0 0 44 44"><defs><style>.cls-1{fill:#111216;}</style></defs><title>stack-2@1x</title><g id="Layer_2" data-name="Layer 2"><g id="Miscellaneous"><g id="Stack_2_2x.png" data-name="Stack 2@2x.png"><path class="cls-1" d="M44,22a3,3,0,0,0-1.61-2.64h0L38.89,17.5l3.51-1.85h0a3,3,0,0,0,0-5.29h0l-19-10h0a2.88,2.88,0,0,0-2.78,0h0l-19,10h0a3,3,0,0,0,0,5.29h0L5.11,17.5,1.6,19.35h0a3,3,0,0,0,0,5.29h0L5.11,26.5,1.6,28.35h0a3,3,0,0,0,0,5.29h0l19,10h0a2.88,2.88,0,0,0,2.78,0h0l19-10h0a3,3,0,0,0,0-5.29h0L38.89,26.5l3.51-1.85h0A3,3,0,0,0,44,22ZM2.53,13.88h0a1,1,0,0,1,0-1.75h0l19-10h0a.9.9,0,0,1,.92,0h0l19,10h0a1,1,0,0,1,0,1.75h0l-19,10h0a.9.9,0,0,1-.92,0h0ZM41.47,30.12h0a1,1,0,0,1,0,1.75h0l-19,10h0a.9.9,0,0,1-.92,0h0l-19-10h0a1,1,0,0,1,0-1.75h0l4.72-2.48,13.35,7h0a2.88,2.88,0,0,0,2.78,0h0l13.35-7Zm0-7.24h0l-19,10h0a.9.9,0,0,1-.92,0h0l-19-10h0a1,1,0,0,1,0-1.75h0l4.72-2.48,13.35,7h0a2.88,2.88,0,0,0,2.78,0h0l13.35-7,4.72,2.48h0a1,1,0,0,1,0,1.75Z"/></g></g></g></svg>